<?xml version="1.0" encoding="utf-8"?>
<!-- Generator: Adobe Illustrator 27.5.0, SVG Export Plug-In . SVG Version: 6.00 Build 0)  -->
<svg version="1.1" id="Layer_1" xmlns="http://www.w3.org/2000/svg" xmlns:xlink="http://www.w3.org/1999/xlink" x="0px" y="0px"
	 viewBox="0 0 1024 686.62" style="enable-background:new 0 0 1024 686.62;" xml:space="preserve">
<style type="text/css">
	.st0{fill:#FFFFFF;}
	.st1{fill:#3156A2;}
</style>
<g>
	<g>
		<path class="st0" d="M114.85,470.75v98.83c0,32.25-12.09,48.36-36.27,48.36h-4.86c-12.95,0-22.24-4.27-27.85-12.83
			c-5.62-8.55-8.42-20.4-8.42-35.54V268.05c0-15.42,2.8-27.34,8.42-35.75c5.61-8.41,14.9-12.62,27.85-12.62h4.86
			c24.17,0,36.27,16.13,36.27,48.36v98.83H87.98v-94.2c0-5.61-0.87-10.02-2.59-13.25c-1.73-3.22-4.86-4.84-9.39-4.84
			c-4.54,0-7.61,1.61-9.23,4.84c-1.62,3.23-2.43,7.64-2.43,13.25v292.28c0,5.61,0.81,10.02,2.43,13.25
			c1.62,3.23,4.69,4.84,9.23,4.84c4.53,0,7.66-1.61,9.39-4.84c1.72-3.22,2.59-7.64,2.59-13.25v-94.2H114.85z"/>
		<path class="st0" d="M161.16,222.42v357.46h23.64v35.33h-50.52V222.42H161.16z"/>
		<path class="st0" d="M384.26,222.42V615.2h-26.23l-31.95-215.74V615.2H300.5V222.42h25.58l31.95,212.37V222.42H384.26z"/>
		<path class="st0" d="M485.68,566.84c0,32.25-12.09,48.36-36.27,48.36h-41.13V222.42h41.13c24.18,0,36.27,16.26,36.27,48.78V566.84
			z M458.8,275.4c0-5.61-0.86-10.02-2.59-13.25c-1.73-3.22-4.86-4.84-9.39-4.84h-11.66V580.3h11.66c4.53,0,7.66-1.61,9.39-4.84
			c1.73-3.22,2.59-7.64,2.59-13.25V275.4z"/>
		<path class="st0" d="M534.32,257.74v143.4h23.96v35.33h-23.96v143.41h23.96v35.33h-50.84V222.42h50.84v35.33H534.32z"/>
		<path class="st0" d="M604.16,370.24c2.59,8.41,8.2,20.33,16.84,35.75c8.63,15.7,14.9,27.9,18.78,36.59
			c3.88,8.69,6.69,17.74,8.42,27.12c1.73,9.4,2.59,21.38,2.59,35.95v63.92c0,32.25-12.09,48.36-36.27,48.36h-4.86
			c-12.96,0-22.24-4.27-27.85-12.83c-5.61-8.55-8.42-20.4-8.42-35.54v-97.98h26.88v93.36c0,5.61,0.81,10.02,2.43,13.25
			c1.62,3.23,4.7,4.84,9.23,4.84c4.53,0,7.66-1.61,9.39-4.84c1.73-3.22,2.59-7.64,2.59-13.25v-64.34c0-12.89-1.35-23.41-4.05-31.54
			c-2.7-8.13-8.37-20.04-17-35.75c-8.64-15.41-14.9-27.61-18.78-36.59c-3.88-8.97-6.64-18.22-8.26-27.75
			c-1.62-9.53-2.43-21.59-2.43-36.17v-64.76c0-15.42,2.8-27.34,8.42-35.75c5.61-8.41,14.9-12.62,27.85-12.62h4.86
			c24.18,0,36.27,16.13,36.27,48.36v98.83h-26.88v-94.2c0-5.61-0.86-10.02-2.59-13.25c-1.73-3.22-4.86-4.84-9.39-4.84
			c-4.53,0-7.61,1.61-9.23,4.84c-1.62,3.23-2.43,7.64-2.43,13.25v64.76C600.27,350.89,601.57,361.83,604.16,370.24z"/>
		<path class="st0" d="M739.35,257.32h-25.26V615.2h-26.88V257.32h-25.26v-34.91h77.39V257.32z"/>
		<path class="st0" d="M784.04,222.42V615.2h-26.88V222.42H784.04z"/>
		<path class="st0" d="M986.54,268.05v301.53c0,32.25-12.09,48.36-36.27,48.36h14.25h-19.1c-12.96,0-22.24-4.27-27.85-12.83
			c-5.61-8.55-8.42-20.4-8.42-35.54V268.05c0-15.42,2.8-27.34,8.42-35.75c5.61-8.41,14.9-12.62,27.85-12.62h15.87h-11.01
			C974.45,219.68,986.54,235.81,986.54,268.05z M959.66,272.67c0-5.61-0.86-10.02-2.59-13.25c-1.73-3.22-4.86-4.84-9.39-4.84
			c-4.53,0-7.61,1.61-9.23,4.84c-1.62,3.23-2.43,7.64-2.43,13.25v292.28c0,5.61,0.81,10.02,2.43,13.25c1.62,3.23,4.7,4.84,9.23,4.84
			c4.53,0,7.66-1.61,9.39-4.84c1.73-3.22,2.59-7.64,2.59-13.25V272.67z"/>
		<path class="st0" d="M264.01,222.42h-44.75l-16,392.79h24.59l1.31-32.82c0.3-7.39,2.38-14.59,6.08-20.99l16.74-28.99l3.39,82.8
			h24.36L264.01,222.42z M232.07,510.64l-0.05,0.56l9.44-236.22l7.81,190.9c0.34,8.36-1.62,16.66-5.68,23.98L232.07,510.64z"/>
		<path class="st0" d="M889.19,222.42V615.2h-26.23l-31.95-215.74V615.2h-25.58V222.42h25.58l31.95,212.37V222.42H889.19z"/>
	</g>
	<g>
		<g>
			<path class="st0" d="M71.32,144.85v3.14c0,4.31,1.39,6.67,4.69,6.67c3.39,0,4.47-2.86,4.47-7.22c0-5.81-1.26-7.81-6.81-12.16
				c-5.59-4.4-8.52-7.15-8.52-14.84c0-6.76,2.04-13.44,10.92-13.41c8.83,0.03,10.56,6.17,10.56,12.23v2.63h-6.93v-2.45
				c0-3.92-0.71-6.37-3.76-6.37c-3.02,0-3.8,2.64-3.8,6.36c0,4.17,0.81,5.98,5.47,9.45c7.56,5.64,9.91,8.86,9.91,17.55
				c0,7.37-2.38,14.23-11.71,14.23c-9.12,0-11.49-5.87-11.49-12.73v-3.05H71.32z"/>
			<path class="st0" d="M115.94,135.5h-11.55v17.97h13.23l-0.91,6.43H97.4V107.8h19.19v6.48h-12.2v14.8h11.55V135.5z"/>
			<path class="st0" d="M148.62,144.59v1.92c0,6.24-1.08,14.13-11.42,14.13c-9.39,0-11.22-6.18-11.22-14v-26.37
				c0-8.17,3.62-13.19,11.33-13.19c9.34,0,11.08,6.36,11.08,13.41v2.21h-7.03v-2.93c0-3.74-0.74-6.33-4.09-6.33
				c-3.23,0-4.16,2.39-4.16,6.4v27.34c0,4.17,0.87,7.15,4.29,7.15c3.39,0,4.14-2.81,4.14-7.13v-2.6H148.62z"/>
			<path class="st0" d="M165.32,136.17v23.73h-6.99V107.8h10.28c7.89,0,12.22,3.26,12.22,12.32v2.15c0,7.62-2.95,10.02-5.3,10.91
				c3.15,1.35,4.8,3.66,4.8,10.69c0,4.41-0.08,12.82,0.49,16.04h-6.77c-0.68-3.19-0.55-11.83-0.55-15.56c0-6.52-0.87-8.17-5.75-8.17
				H165.32z M165.32,130.35h2.5c4.54,0,6-2.13,6-7.75v-2.01c0-4.33-1.03-6.95-5.86-6.95h-2.64V130.35z"/>
			<path class="st0" d="M210.22,135.5h-11.55v17.97h13.23l-0.91,6.43h-19.31V107.8h19.19v6.48h-12.2v14.8h11.55V135.5z"/>
			<path class="st0" d="M227.04,114.28h-8.39v-6.48h23.78v6.48h-8.4v45.63h-6.99V114.28z"/>
			<path class="st0" d="M250.81,107.8h6.99v45.84h13.11l-0.65,6.26h-19.44V107.8z"/>
			<path class="st0" d="M280.38,159.9v-18.88c0-0.63-0.08-1-0.27-1.61l-9.66-31.62h7.71c2.3,8.87,5,19.22,5.82,24.52h0.08
				c1.05-5.68,3.73-15.92,5.86-24.52h7.42l-9.82,32.16c-0.08,0.37-0.16,0.84-0.16,1.8v18.14H280.38z"/>
		</g>
		<g>
			<path class="st0" d="M714.49,107.01h10.6c11.32,0,13.51,6.34,13.51,15.57v20.56c0,8.1-1.33,16.81-13.66,16.81h-10.45V107.01z
				 M721.59,153.87h2.87c5.8,0,6.91-3.52,6.91-9.61v-22.32c0-5.39-0.96-8.78-6.92-8.78h-2.85V153.87z"/>
			<path class="st0" d="M756.87,107.01v52.94h-7.1v-52.94H756.87z"/>
			<path class="st0" d="M773.74,144.65v3.19c0,4.38,1.41,6.78,4.77,6.78c3.44,0,4.55-2.9,4.55-7.34c0-5.9-1.28-7.94-6.92-12.36
				c-5.69-4.47-8.66-7.26-8.66-15.08c0-6.87,2.07-13.65,11.1-13.63c8.98,0.03,10.72,6.27,10.72,12.42v2.67h-7.04v-2.48
				c0-3.98-0.72-6.47-3.82-6.47c-3.06,0-3.86,2.68-3.86,6.46c0,4.23,0.82,6.08,5.56,9.6c7.68,5.73,10.06,9,10.06,17.83
				c0,7.49-2.41,14.45-11.89,14.45c-9.27,0-11.67-5.97-11.67-12.94v-3.1H773.74z"/>
			<path class="st0" d="M805.4,113.59h-8.52v-6.58h24.16v6.58h-8.54v46.36h-7.1V113.59z"/>
			<path class="st0" d="M836.64,107.01v52.94h-7.1v-52.94H836.64z"/>
			<path class="st0" d="M848.89,107.01h7.1v46.58h13.31l-0.66,6.36h-19.75V107.01z"/>
			<path class="st0" d="M877.51,107.01h7.1v46.58h13.32l-0.66,6.36h-19.75V107.01z"/>
			<path class="st0" d="M924.92,135.16h-11.74v18.26h13.44l-0.92,6.53h-19.62v-52.94h19.49v6.58h-12.4v15.04h11.74V135.16z"/>
			<path class="st0" d="M935.56,107.01h10.6c11.31,0,13.51,6.34,13.51,15.57v20.56c0,8.1-1.34,16.81-13.67,16.81h-10.44V107.01z
				 M942.65,153.87h2.86c5.81,0,6.92-3.52,6.92-9.61v-22.32c0-5.39-0.96-8.78-6.92-8.78h-2.85V153.87z"/>
		</g>
	</g>
	<g>
		<g>
			<g>
				<path class="st1" d="M477.35,125.67v35.18c-10.7,6.95-23.24,11.45-40,11.45c-35.21,0-57.6-18.13-57.6-50.59
					c0-31.9,23.66-51.94,55.63-51.94c17.18,0,31.26,7.64,39.71,15.96l-17.95,15.17c-5.21-11.19-6.97-28.95-22.6-28.95
					c-20.7,0-30.42,19.23-30.42,48.81c0,28.9,12.82,49.09,33.8,49.09c6.62,0,14.65-1.77,19.3-4.64v-37.08h-20.14l-1.55-2.45H477.35z
					"/>
			</g>
			<g>
				<rect x="507.62" y="71.41" class="st1" width="22.39" height="99.26"/>
			</g>
			<g>
				<path class="st1" d="M644.24,71.41c-2.68,10.91-4.37,24.27-4.37,43.36v57.53h-1.83l-67.74-84.94v39.95
					c0,19.09,16.7,32.44,19.38,43.35h-26.56c2.67-10.91,4.36-24.27,4.36-43.35v-43.5l-9.57-11.99v-0.42h26.61l52.53,67.22v-23.86
					c0-19.09-17.54-32.45-20.22-43.36H644.24z"/>
			</g>
		</g>
	</g>
</g>
</svg>
